<svg xmlns="http://www.w3.org/2000/svg" width="396" height="432"><path d="M310.318 405.15v-26.464l-9.75-.287-9.75-.286-.3-5.75-.3-5.75H355.834l5.864 13.25c3.225 7.288 6.163 13.582 6.529 13.986.366.405 3.528-5.557 7.028-13.25l6.363-13.986h6.35c3.493 0 6.345.338 6.337.75-.008.413-4.282 9.507-9.5 20.21l-9.486 19.458v24.582h-14l.01-12.25.01-12.25-6.735-14.25-6.735-14.25H323.32v53h-13V405.15zm-45-6.037v-32.5h13v65h-13v-32.5zm-93.044 9.25c-.024-.137-1.956-5.777-4.292-12.532l-4.249-12.283-3.642 10.783c-2.003 5.93-3.944 11.57-4.314 12.532-.609 1.583.148 1.75 7.934 1.75 4.734 0 8.587-.112 8.563-.25zM134.35 431.41c.017-.163 5.082-14.696 11.255-32.296l11.222-32H171.508l11.405 31.939c6.273 17.566 11.405 32.098 11.405 32.294 0 .195-3.238.223-7.196.061l-7.197-.294-1.996-6.25-1.996-6.25h-24.23l-1.995 6.25-1.996 6.25-6.697.296c-3.683.163-6.682.163-6.665 0zm85.85-.176c-9.316-3.33-14.483-8.87-17.3-18.551-4.102-14.091.474-32.433 9.882-39.608 7.357-5.612 20.408-8.036 31.411-5.836 2.963.593 3.125.866 3.11 5.25-.008 2.544-.346 5.075-.75 5.625-.407.555-5.33 1-11.054 1h-10.32l-3.829 4.103c-4.98 5.336-6.719 12.705-5.129 21.741 1.748 9.934 6.541 14.697 15.54 15.443 3.04.252 7.613-.067 10.164-.71 2.55-.641 4.766-1.034 4.923-.872.158.163.441 2.77.629 5.795l.341 5.5-4.5 1.17c-6.048 1.572-18.654 1.545-23.117-.05zm-120.197-11.686c7.423-2.813 11.261-9.941 11.293-20.972.043-14.444-6.235-20.962-20.19-20.962h-6.788v43h6.435c3.54 0 7.702-.48 9.25-1.066zM75.555 431.88l-4.264-.383.264-32.192.263-32.192 13.446-.28c15.943-.333 22.382.809 28.772 5.1 7.126 4.784 10.677 12.369 11.129 23.769 1.085 27.386-15.214 39.272-49.61 36.178zm-60.737-.417c-5.034-1.854-9.62-5.905-11.587-10.234-1.665-3.667-1.871-6.869-1.89-29.366l-.023-25.25h13v23.55c0 25.591.428 27.957 5.472 30.256 3.846 1.752 12.643 1.503 15.411-.436 4.543-3.182 5.117-6.643 5.117-30.838v-22.532h13v22.319c0 24.482-.874 30.001-5.65 35.678-4.564 5.424-9.672 7.35-20.35 7.67-5.235.159-10.846-.209-12.5-.817zM163.818 296.992c-37.163-3.839-54.008-9.982-69.592-25.379-15.148-14.965-21.233-28.957-23.858-54.856-.626-6.174-1.05-39.016-1.05-81.327V64.46l-2.841-2.842c-2.024-2.024-4.6-3.188-8.955-4.044-6.937-1.365-10.288-4.017-8.553-6.77.973-1.54 4.513-1.69 39.85-1.69 35.336 0 38.876.15 39.848 1.69 1.964 3.114-1.51 5.335-10.496 6.71-9.354 1.432-12.266 2.978-13.778 7.314-1.45 4.161-1.47 133.222-.022 146.575 1.376 12.685 4.297 24.994 7.373 31.064 3.622 7.148 11.6 15.348 18.518 19.036 18.854 10.049 53.391 12.012 77.533 4.407 11.055-3.482 15.025-5.68 21.611-11.962 7.09-6.763 11.067-14.657 14.021-27.835 2.209-9.85 2.25-11.383 2.82-102.5l.579-92.5 2.33-5.782c4.684-11.624 12.012-18.195 23.622-21.184 4.671-1.202 12.08-1.534 34.25-1.534h28.29v2.965c0 3.82-1.428 4.508-12.5 6.03-4.95.682-10.478 1.845-12.286 2.586-6.467 2.652-6.214-1.473-6.214 101.213 0 95.418-.404 107.648-4.027 121.815-3.208 12.542-10.115 24.49-19.697 34.073-18.238 18.237-42.242 25.173-89.276 25.798-12.925.172-25.3.126-27.5-.1z" fill="#ee7622"/></svg>